<svg width="116" height="88" viewBox="0 0 116 88" fill="none" xmlns="http://www.w3.org/2000/svg">
<path d="M75.34 9.90004C75.0241 9.52128 74.6328 9.21249 74.1909 8.99335C73.7491 8.77421 73.2665 8.64954 72.7738 8.62728C72.2811 8.60501 71.7892 8.68565 71.3294 8.86405C70.8696 9.04245 70.4521 9.3147 70.1033 9.66343C69.7546 10.0122 69.4824 10.4297 69.304 10.8895C69.1256 11.3493 69.0449 11.8412 69.0672 12.3339C69.0894 12.8266 69.2141 13.3092 69.4333 13.751C69.6524 14.1929 69.9612 14.5842 70.34 14.9L95.85 40.44H11.53C10.6197 40.4883 9.76268 40.8839 9.13544 41.5453C8.50821 42.2067 8.15857 43.0835 8.15857 43.995C8.15857 44.9066 8.50821 45.7834 9.13544 46.4447C9.76268 47.1061 10.6197 47.5017 11.53 47.55H95.85L70.3 73.06C69.6569 73.7335 69.298 74.6289 69.298 75.56C69.298 76.4912 69.6569 77.3866 70.3 78.06C70.6279 78.389 71.0175 78.65 71.4465 78.8281C71.8755 79.0062 72.3355 79.0979 72.8 79.0979C73.2645 79.0979 73.7244 79.0062 74.1534 78.8281C74.5824 78.65 74.972 78.389 75.3 78.06L106.9 46.46C107.236 46.1363 107.504 45.748 107.687 45.3185C107.869 44.8889 107.964 44.4269 107.964 43.96C107.964 43.4932 107.869 43.0312 107.687 42.6016C107.504 42.1721 107.236 41.7838 106.9 41.46L75.34 9.90004Z" fill="#333333"/>
</svg>
