<svg width="23" height="17" viewBox="0 0 23 17" fill="none" xmlns="http://www.w3.org/2000/svg">
<path d="M14.78 1.82368C14.7179 1.74922 14.6409 1.68851 14.5541 1.64543C14.4672 1.60235 14.3723 1.57784 14.2755 1.57347C14.1786 1.56909 14.0819 1.58494 13.9915 1.62001C13.9011 1.65508 13.8191 1.70861 13.7505 1.77716C13.6819 1.84572 13.6284 1.92781 13.5933 2.0182C13.5583 2.10859 13.5424 2.2053 13.5468 2.30215C13.5512 2.39901 13.5757 2.49389 13.6188 2.58075C13.6618 2.66761 13.7226 2.74454 13.797 2.80663L18.812 7.82755H2.23554C2.05659 7.83704 1.88811 7.91481 1.7648 8.04484C1.64149 8.17486 1.57275 8.34723 1.57275 8.52643C1.57275 8.70562 1.64149 8.87799 1.7648 9.00802C1.88811 9.13804 2.05659 9.21581 2.23554 9.22531H18.812L13.7892 14.2403C13.6627 14.3727 13.5922 14.5487 13.5922 14.7318C13.5922 14.9149 13.6627 15.0909 13.7892 15.2233C13.8536 15.288 13.9302 15.3393 14.0146 15.3743C14.0989 15.4093 14.1893 15.4273 14.2806 15.4273C14.3719 15.4273 14.4624 15.4093 14.5467 15.3743C14.631 15.3393 14.7076 15.288 14.7721 15.2233L20.9844 9.01102C21.0505 8.94738 21.1031 8.87105 21.139 8.7866C21.1749 8.70215 21.1934 8.61132 21.1934 8.51955C21.1934 8.42777 21.1749 8.33694 21.139 8.2525C21.1031 8.16805 21.0505 8.09172 20.9844 8.02807L14.78 1.82368Z" fill="#333333"/>
</svg>
